<?xml version="1.0" standalone="no"?>
<!DOCTYPE svg PUBLIC "-//W3C//DTD SVG 20010904//EN"
 "http://www.w3.org/TR/2001/REC-SVG-20010904/DTD/svg10.dtd">
<svg version="1.0" xmlns="http://www.w3.org/2000/svg"
 width="300.000000pt" height="300.000000pt" viewBox="0 0 300.000000 300.000000"
 preserveAspectRatio="xMidYMid meet">
<metadata>
Created by potrace 1.10, written by Peter Selinger 2001-2011
</metadata>
<g transform="translate(0.000000,300.000000) scale(0.100000,-0.100000)"
fill="#000000" stroke="none">
<path d="M322 2789 c-51 -26 -109 -90 -123 -139 -6 -23 -9 -416 -7 -1172 l3
-1136 30 -43 c17 -24 50 -57 74 -74 l43 -30 565 -3 c414 -2 569 1 579 9 18 15
18 53 1 68 -9 7 -183 11 -564 13 -540 3 -552 3 -580 24 -15 11 -36 36 -45 55
-17 32 -18 107 -18 1139 0 1032 1 1107 18 1139 9 19 30 44 45 55 28 21 31 21
1157 21 1126 0 1129 0 1157 -21 15 -11 36 -36 45 -55 17 -32 18 -107 18 -1139
0 -1032 -1 -1107 -18 -1139 -9 -19 -30 -44 -45 -55 -27 -20 -43 -21 -313 -24
l-284 -3 0 424 0 423 143 -4 c193 -6 179 -21 211 232 18 139 22 204 15 217 -9
17 -24 19 -189 19 l-180 0 0 173 c0 156 2 176 18 190 16 14 44 17 180 17 149
0 162 1 172 19 6 12 10 101 10 219 0 184 -1 200 -19 216 -18 16 -42 17 -258
14 -219 -4 -243 -6 -296 -27 -74 -29 -151 -91 -200 -161 -65 -93 -70 -124 -74
-405 l-3 -250 -172 -3 c-106 -1 -177 -7 -185 -13 -10 -9 -13 -59 -13 -220 l0
-209 25 -16 c21 -14 50 -16 185 -13 l161 4 -1 -448 c0 -296 3 -454 10 -467 14
-27 66 -27 80 -1 6 13 10 188 10 499 0 451 -1 480 -18 495 -16 14 -45 17 -190
17 l-172 0 0 140 0 140 174 0 c145 0 177 3 190 16 14 13 16 54 16 289 0 250 2
279 20 328 34 91 119 171 210 197 18 5 120 10 227 10 l194 2 2 -141 2 -141
-139 0 c-122 0 -143 -2 -171 -20 -59 -37 -65 -63 -65 -302 0 -153 3 -217 12
-226 8 -8 64 -12 186 -12 l174 0 -6 -22 c-3 -13 -11 -76 -18 -140 l-12 -118
-149 0 c-83 0 -157 -5 -168 -10 -18 -10 -19 -27 -19 -504 0 -411 2 -495 14
-505 10 -9 104 -11 344 -9 l330 3 43 30 c24 17 57 50 74 74 l30 43 0 1158 0
1158 -30 43 c-17 24 -50 57 -74 74 l-43 30 -1146 3 -1147 2 -43 -21z m808 -21
c0 -4 -21 -7 -47 -7 -46 2 -46 2 -13 8 48 9 60 9 60 -1z m1415 -2 c11 -2 -68
-3 -175 -3 -174 1 -182 2 -70 7 117 5 199 3 245 -4z m-2149 -8 c4 -7 4 -10 -1
-6 -10 10 -75 -24 -101 -54 -12 -12 -29 -38 -38 -55 -28 -56 -30 -41 -4 29 11
31 66 76 106 88 15 5 28 9 29 9 1 1 5 -5 9 -11z m172 5 c-15 -2 -42 -2 -60 0
-18 2 -6 4 27 4 33 0 48 -2 33 -4z m1335 0 c-29 -2 -78 -2 -110 0 -32 2 -8 3
52 3 61 0 87 -1 58 -3z m780 -25 c45 -29 74 -74 81 -123 4 -29 4 -33 -3 -15
-24 72 -91 150 -129 150 -9 0 -24 5 -32 11 -30 22 49 0 83 -23z m-2446 -435
c-1 -43 -3 -8 -3 77 0 85 2 120 3 78 2 -43 2 -113 0 -155z m2145 91 c15 -4 17
-26 18 -190 0 -203 2 -199 -62 -192 l-33 4 27 11 c42 18 48 42 48 181 0 179
11 171 -235 173 -216 2 -269 -9 -350 -76 -64 -52 -125 -136 -125 -172 0 -15
-2 -16 -10 -3 -21 33 88 177 160 211 60 29 84 38 120 47 38 10 415 15 442 6z
m385 -116 c-2 -18 -4 -6 -4 27 0 33 2 48 4 33 2 -15 2 -42 0 -60z m-1115 -243
c-2 -30 -8 -55 -13 -55 -10 0 -11 20 -3 73 10 56 19 45 16 -18z m451 -28 c-18
-7 -42 -22 -55 -34 -21 -21 -22 -31 -22 -178 0 -85 -4 -155 -9 -155 -5 0 -7
74 -5 166 l3 166 27 22 c16 12 43 22 60 23 l33 2 -32 -12z m134 6 c-20 -2 -52
-2 -70 0 -17 2 0 4 38 4 39 0 53 -2 32 -4z m-588 -203 c0 -44 -3 -80 -8 -80
-4 0 -8 38 -9 85 0 47 3 83 8 80 5 -3 9 -41 9 -85z m-3 -222 l-1 -43 -162 -3
-162 -2 -26 -32 c-26 -30 -26 -34 -23 -154 3 -118 4 -125 29 -150 26 -26 27
-26 181 -25 135 1 156 -1 162 -15 9 -23 7 -449 -1 -440 -5 4 -9 93 -9 197 -1
157 -4 193 -18 214 -18 27 -7 26 -211 28 -66 1 -125 5 -132 10 -12 8 -19 339
-8 368 4 12 33 14 148 13 78 -2 154 2 169 8 15 5 33 23 40 39 18 41 26 36 24
-13z m384 24 c0 -11 9 -27 21 -38 18 -16 40 -19 172 -22 84 -2 157 -5 164 -7
8 -3 10 -17 6 -42 -7 -44 -18 -62 -20 -32 -1 12 -12 32 -24 45 -21 22 -29 24
-178 26 l-156 3 -1 43 c-1 23 3 42 7 42 5 0 9 -8 9 -18z m737 -114 c-2 -24 -4
-7 -4 37 0 44 2 63 4 43 2 -21 2 -57 0 -80z m-403 -235 c-3 -38 -13 -75 -21
-83 -11 -12 -43 -15 -146 -17 -130 -2 -132 -2 -155 -29 -21 -24 -23 -36 -22
-118 1 -50 0 -140 -1 -201 l-3 -110 -6 151 c-3 84 -3 190 0 235 l5 84 140 2
140 3 28 30 c16 18 27 42 27 59 0 29 8 61 16 61 3 0 2 -30 -2 -67z m-717 -748
c-1 -107 -5 -195 -8 -195 -6 0 -6 80 1 368 0 12 2 22 4 22 3 0 4 -88 3 -195z
m406 -251 c25 -21 39 -24 120 -26 l92 -2 -105 -5 c-163 -9 -150 -19 -148 118
l1 116 6 -88 c6 -81 8 -91 34 -113z m-1803 117 c0 -32 23 -67 69 -102 l44 -34
526 -5 c289 -3 517 -7 506 -8 -41 -6 -1000 -1 -1025 5 -14 3 -33 13 -42 21
-10 8 -18 11 -18 7 0 -14 -49 48 -65 82 -17 35 -20 67 -5 58 6 -3 10 -14 10
-24z m2499 -47 c-15 -29 -39 -56 -62 -71 -53 -33 -69 -24 -18 10 45 30 81 80
81 112 0 14 3 16 11 8 8 -8 5 -24 -12 -59z m-256 -101 c-40 -2 -107 -2 -150 0
-43 1 -10 3 72 3 83 0 118 -2 78 -3z"/>
</g>
</svg>
