<?xml version="1.0" standalone="no"?>
<!DOCTYPE svg PUBLIC "-//W3C//DTD SVG 20010904//EN"
 "http://www.w3.org/TR/2001/REC-SVG-20010904/DTD/svg10.dtd">
<svg version="1.0" xmlns="http://www.w3.org/2000/svg"
 width="300.000000pt" height="300.000000pt" viewBox="0 0 300.000000 300.000000"
 preserveAspectRatio="xMidYMid meet">
<metadata>
Created by potrace 1.10, written by Peter Selinger 2001-2011
</metadata>
<g transform="translate(0.000000,300.000000) scale(0.100000,-0.100000)"
fill="#000000" stroke="none">
<path d="M765 2439 c-59 -8 -109 -35 -154 -84 -73 -79 -71 -60 -71 -855 0
-795 -2 -776 71 -855 22 -24 60 -53 85 -65 45 -21 51 -21 781 -21 725 0 735 0
778 21 24 12 61 41 84 65 73 79 71 60 71 850 0 667 -1 703 -18 718 -22 20 -43
22 -60 5 -9 -9 -12 -180 -12 -707 0 -455 -4 -709 -11 -734 -14 -51 -63 -104
-107 -117 -25 -8 -267 -10 -749 -8 -704 3 -712 3 -740 24 -15 11 -38 36 -50
54 l-23 33 0 737 0 737 23 33 c12 18 35 43 50 54 28 21 38 21 740 26 392 3
718 9 725 13 14 10 16 46 2 67 -8 13 -96 15 -692 15 -376 0 -701 -3 -723 -6z"/>
<path d="M2342 2374 c-46 -32 -16 -96 36 -78 34 12 38 59 7 80 -18 12 -24 11
-43 -2z"/>
<path d="M1077 2089 c-62 -17 -120 -65 -151 -126 -14 -28 -16 -87 -17 -462 0
-409 1 -431 19 -468 24 -45 64 -84 111 -108 30 -15 78 -17 461 -17 408 0 429
1 466 20 46 24 85 63 109 110 15 30 17 80 17 462 0 383 -2 431 -17 461 -24 48
-63 87 -110 111 -38 20 -57 21 -453 22 -227 1 -422 -2 -435 -5z m885 -127 l33
-32 0 -430 0 -430 -33 -32 -32 -33 -430 0 -430 0 -32 33 -33 32 0 429 0 429
25 27 c14 15 34 31 45 36 11 4 208 7 437 6 l418 -2 32 -33z"/>
<path d="M1800 1860 c-11 -11 -20 -26 -20 -33 0 -18 32 -47 52 -47 17 0 48 31
48 48 0 15 -36 52 -50 52 -5 0 -19 -9 -30 -20z"/>
<path d="M1420 1801 c-86 -28 -159 -90 -201 -171 -20 -37 -24 -60 -24 -130 0
-73 4 -92 27 -136 33 -62 89 -117 148 -147 65 -32 196 -31 262 1 112 56 198
201 174 296 -13 51 -86 40 -86 -13 0 -112 -108 -221 -220 -221 -110 0 -220
109 -220 218 0 91 79 190 167 211 41 10 63 10 107 0 44 -10 58 -10 71 1 23 19
18 57 -11 76 -28 19 -153 29 -194 15z"/>
</g>
</svg>
