<?xml version="1.0" standalone="no"?>
<!DOCTYPE svg PUBLIC "-//W3C//DTD SVG 20010904//EN"
 "http://www.w3.org/TR/2001/REC-SVG-20010904/DTD/svg10.dtd">
<svg version="1.0" xmlns="http://www.w3.org/2000/svg"
 width="62.000000pt" height="62.000000pt" viewBox="0 0 62.000000 62.000000"
 preserveAspectRatio="xMidYMid meet">
<metadata>
Created by potrace 1.10, written by Peter Selinger 2001-2011
</metadata>
<g transform="translate(0.000000,62.000000) scale(0.100000,-0.100000)"
fill="#000000" stroke="none">
<path d="M87 507 c43 -62 96 -139 119 -171 l42 -60 -120 -138 c-111 -129 -117
-138 -91 -138 23 1 45 20 128 120 55 65 102 119 105 119 3 0 41 -54 85 -119
l80 -120 88 1 c48 1 87 4 87 6 0 3 -15 26 -33 52 -19 25 -72 103 -120 172
l-86 127 109 127 c61 70 110 129 110 131 0 2 -11 4 -24 4 -18 0 -47 -28 -121
-115 l-98 -114 -76 112 -77 112 -92 2 -92 2 77 -112z m267 -197 l185 -265 -36
-3 c-21 -2 -41 2 -49 10 -7 7 -87 121 -179 253 -92 132 -175 248 -183 258 -15
17 -14 18 30 15 l47 -3 185 -265z"/>
</g>
</svg>
